{"title":"The.Adjustment.Bureau.2011.BRRip.XviD-RLF","uid":6459539,"size":752260105,"categoryP":"video","categoryS":"movies","magnet":"?xt=urn:btih:bf883405322f88035c85dced2755311c2ad2c595&amp;dn=The.Adjustment.Bureau.2011.BRRip.XviD-RLF&amp;tr=udp%3A%2F%2Ftracker.openbittorrent.com%3A80&amp;tr=udp%3A%2F%2Fopen.demonii.com%3A1337&amp;tr=udp%3A%2F%2Ftracker.coppersurfer.tk%3A6969&amp;tr=udp%3A%2F%2Fexodus.desync.com%3A6969","seeders":0,"leechers":1,"uploader":"rlf-rls","files":-1,"time":1307705906,"description":"       The.Adjustment.Bureau.2011.BRRip.XviD-RLF\n       ~~~~~~~~~~~~~~~~~~~~~~~~~~~~~~~~~~~~~~~~~~\n\n\n                        General:\n\n\n    Complete name                    : rlf-bureau.avi\n    Format                           : AVI\n    Format/Info                      : Audio Video Interleave\n    File size                        : 707 MiB\n    Duration                         : 1h 45mn\n    Overall bit rate                 : 933 Kbps\n    Language                         : English\n    Subs                             : Polish, English\n    Encoder                          : Ralf\n\n                         Video:\n\n    Format                           : MPEG-4 Visual\n    Format profile                   : Advanced Simple@L5\n    Format settings, BVOP            : 2\n    Format settings, QPel            : No\n    Format settings, GMC             : No warppoints\n    Format settings, Matrix          : H.263\n    Muxing mode                      : Packed bitstream\n    Codec ID/Hint                    : XviD\n    Duration                         : 1h 45mn\n    Bit rate                         : 792 Kbps\n    Width                            : 688 pixels\n    Height                           : 368 pixels\n    Display aspect ratio             : 1.870\n    Frame rate                       : 23.976 fps\n    Color space                      : YUV\n    Chroma subsampling               : 4:2:0\n    Bit depth                        : 8 bits\n    Scan type                        : Progressive\n    Bits/(Pixel*Frame)               : 0.131\n    Stream size                      : 600 MiB (85%)\n    Writing library                  : XviD 1.2.1 \n\n                         Audio:\n\n    Format                           : MPEG Audio\n    Format version                   : Version 1\n    Format profile                   : Layer 3\n    Codec ID/Hint                    : MP3\n    Duration                         : 1h 45mn\n    Bit rate                         : 128 Kbps\n    Channel(s)                       : 2 channels\n    Sampling rate                    : 48.0 KHz\n    Stream size                      : 96.9 MiB (14%)\n    Alignment                        : Split accross interleaves\n    Interleave, duration             : 24 ms \n\n\n\n\n\n\n                        MOVIE INFO:\n\n  The affair between a politician and a ballerina is affected \n         by mysterious forces keeping the lovers apart.\n\n            &lt;a href=&quot; http://www.imdb.com/title/tt1385826/&quot; rel=&quot;nofollow&quot; target=&quot;_NEW&quot;&gt; http://www.imdb.com/title/tt1385826/&lt;/a&gt;\n\n\n                          SOURCE:\n\n                 SiNNERS 720p.BluRay.x264 (THX)\n\n\n    &lt;a href=&quot; http://www.leetleech.org/images/48880030545364299398.png&quot; rel=&quot;nofollow&quot; target=&quot;_NEW&quot;&gt; http://www.leetleech.org/images/48880030545364299398.png&lt;/a&gt;\n    &lt;a href=&quot; http://www.leetleech.org/images/12552370974330477645.png&quot; rel=&quot;nofollow&quot; target=&quot;_NEW&quot;&gt; http://www.leetleech.org/images/12552370974330477645.png&lt;/a&gt;\n    &lt;a href=&quot; http://www.leetleech.org/images/49300392896424971935.png&quot; rel=&quot;nofollow&quot; target=&quot;_NEW&quot;&gt; http://www.leetleech.org/images/49300392896424971935.png&lt;/a&gt;\n    &lt;a href=&quot; http://www.leetleech.org/images/17385396445488297151.png&quot; rel=&quot;nofollow&quot; target=&quot;_NEW&quot;&gt; http://www.leetleech.org/images/17385396445488297151.png&lt;/a&gt;\n    &lt;a href=&quot; http://www.leetleech.org/images/28725860480704743565.png&quot; rel=&quot;nofollow&quot; target=&quot;_NEW&quot;&gt; http://www.leetleech.org/images/28725860480704743565.png&lt;/a&gt;\n\n\n","torrent":{"xt":"urn:btih:bf883405322f88035c85dced2755311c2ad2c595","amp;dn":"The.Adjustment.Bureau.2011.BRRip.XviD-RLF","amp;tr":["udp%3A%2F%2Ftracker.openbittorrent.com%3A80","udp%3A%2F%2Fopen.demonii.com%3A1337","udp%3A%2F%2Ftracker.coppersurfer.tk%3A6969","udp%3A%2F%2Fexodus.desync.com%3A6969"],"infoHash":"bf883405322f88035c85dced2755311c2ad2c595","infoHashBuffer":{"type":"Buffer","data":[191,136,52,5,50,47,136,3,92,133,220,237,39,85,49,28,42,210,197,149]},"announce":[],"urlList":[]}}